HIERARCHY
ROOT Hips
{
	OFFSET 0.000000 103.266502 0.000000
	CHANNELS 6 Xposition Yposition Zposition Xrotation Yrotation Zrotation 
	JOINT Spine
	{
		OFFSET -0.002400 12.777504 0.315300
		CHANNELS 3 Xrotation Yrotation Zrotation
		JOINT Spine1
		{
			OFFSET -0.002067 5.816869 0.032633
			CHANNELS 3 Xrotation Yrotation Zrotation
			JOINT Spine1_split
			{
				OFFSET -0.002067 5.816869 0.032633
				CHANNELS 3 Xrotation Yrotation Zrotation
				JOINT Spine2
				{
					OFFSET -0.002067 5.816869 0.032633
					CHANNELS 3 Xrotation Yrotation Zrotation
					JOINT Neck
					{
						OFFSET -0.003700 21.199493 -0.826900
						CHANNELS 3 Xrotation Yrotation Zrotation
						JOINT Head
						{
							OFFSET 0.000000 20.442200 4.834800
							CHANNELS 3 Xrotation Yrotation Zrotation
							JOINT HeadTop_End
							{
								OFFSET 0.000000 34.668396 4.968400
								CHANNELS 3 Xrotation Yrotation Zrotation
								End Site
								{
									OFFSET 0.000000 0.000000 0.000000
								}
							}
						}
					}
					JOINT LeftShoulder
					{
						OFFSET 3.288150 8.794197 -1.372250
						CHANNELS 3 Xrotation Yrotation Zrotation
						JOINT LeftShoulder_split
						{
							OFFSET 3.288150 8.794197 -1.372250
							CHANNELS 3 Xrotation Yrotation Zrotation
							JOINT LeftArm
							{
								OFFSET 11.953299 -2.279007 -0.146200
								CHANNELS 3 Xrotation Yrotation Zrotation
								JOINT LeftForeArm
								{
									OFFSET 18.448900 0.000000 0.000000
									CHANNELS 3 Xrotation Yrotation Zrotation
									JOINT LeftHand
									{
										OFFSET 29.527798 0.000000 0.000000
										CHANNELS 3 Xrotation Yrotation Zrotation
										JOINT LeftHandThumb1
										{
											OFFSET 10.739754 -2.369614 9.225399
											CHANNELS 3 Xrotation Yrotation Zrotation
											JOINT LeftHandThumb2
											{
												OFFSET 4.926170 -2.844131 2.844125
												CHANNELS 3 Xrotation Yrotation Zrotation
												JOINT LeftHandThumb3
												{
													OFFSET 4.614891 -2.664413 2.664409
													CHANNELS 3 Xrotation Yrotation Zrotation
													JOINT LeftHandThumb4
													{
														OFFSET 4.432465 -2.559082 2.559083
														CHANNELS 3 Xrotation Yrotation Zrotation
														End Site
														{
															OFFSET 0.000000 0.000000 0.000000
														}
													}
												}
											}
										}
										JOINT LeftHandIndex1
										{
											OFFSET 26.467674 0.187653 6.405298
											CHANNELS 3 Xrotation Yrotation Zrotation
											JOINT LeftHandIndex2
											{
												OFFSET 8.792900 0.000000 0.000000
												CHANNELS 3 Xrotation Yrotation Zrotation
												JOINT LeftHandIndex3
												{
													OFFSET 10.075203 0.000000 0.000000
													CHANNELS 3 Xrotation Yrotation Zrotation
													End Site
													{
														OFFSET 0.000000 0.000000 0.000000
													}
												}
											}
										}
										JOINT LeftHandMiddle1
										{
											OFFSET 25.764404 0.000000 0.000000
											CHANNELS 3 Xrotation Yrotation Zrotation
											JOINT LeftHandMiddle2
											{
												OFFSET 9.393974 0.000000 0.000000
												CHANNELS 3 Xrotation Yrotation Zrotation
												JOINT LeftHandMiddle3
												{
													OFFSET 10.771950 0.000000 0.000000
													CHANNELS 3 Xrotation Yrotation Zrotation
													End Site
													{
														OFFSET 0.000000 0.000000 0.000000
													}
												}
											}
										}
										JOINT LeftHandRing1
										{
											OFFSET 24.660927 0.144547 -6.225808
											CHANNELS 3 Xrotation Yrotation Zrotation
											JOINT LeftHandRing2
											{
												OFFSET 9.393799 0.000000 0.000000
												CHANNELS 3 Xrotation Yrotation Zrotation
												JOINT LeftHandRing3
												{
													OFFSET 9.928497 0.000000 0.000000
													CHANNELS 3 Xrotation Yrotation Zrotation
													End Site
													{
														OFFSET 0.000000 0.000000 0.000000
													}
												}
											}
										}
										JOINT LeftHandPinky1
										{
											OFFSET 23.655350 0.125290 -12.815412
											CHANNELS 3 Xrotation Yrotation Zrotation
											JOINT LeftHandPinky2
											{
												OFFSET 8.425102 0.000000 0.000000
												CHANNELS 3 Xrotation Yrotation Zrotation
												JOINT LeftHandPinky3
												{
													OFFSET 8.147003 0.000000 0.000000
													CHANNELS 3 Xrotation Yrotation Zrotation
													End Site
													{
														OFFSET 0.000000 0.000000 0.000000
													}
												}
											}
										}
									}
								}
							}
						}
					}
					JOINT RightShoulder
					{
						OFFSET -3.249400 8.794197 -1.372250
						CHANNELS 3 Xrotation Yrotation Zrotation
						JOINT RightShoulder_split
						{
							OFFSET -3.249400 8.794197 -1.372250
							CHANNELS 3 Xrotation Yrotation Zrotation
							JOINT RightArm
							{
								OFFSET -11.953299 -2.279007 -0.146200
								CHANNELS 3 Xrotation Yrotation Zrotation
								JOINT RightForeArm
								{
									OFFSET -18.448900 0.000000 0.000000
									CHANNELS 3 Xrotation Yrotation Zrotation
									JOINT RightHand
									{
										OFFSET -29.527802 0.000000 0.000000
										CHANNELS 3 Xrotation Yrotation Zrotation
										JOINT RightHandThumb1
										{
											OFFSET -10.739754 -2.369614 9.225399
											CHANNELS 3 Xrotation Yrotation Zrotation
											JOINT RightHandThumb2
											{
												OFFSET -4.926170 -2.844131 2.844125
												CHANNELS 3 Xrotation Yrotation Zrotation
												JOINT RightHandThumb3
												{
													OFFSET -4.614891 -2.664413 2.664409
													CHANNELS 3 Xrotation Yrotation Zrotation
													JOINT RightHandThumb4
													{
														OFFSET -4.432465 -2.559082 2.559083
														CHANNELS 3 Xrotation Yrotation Zrotation
														End Site
														{
															OFFSET 0.000000 0.000000 0.000000
														}
													}
												}
											}
										}
										JOINT RightHandIndex1
										{
											OFFSET -26.467674 0.187653 6.405298
											CHANNELS 3 Xrotation Yrotation Zrotation
											JOINT RightHandIndex2
											{
												OFFSET -8.792900 0.000000 0.000000
												CHANNELS 3 Xrotation Yrotation Zrotation
												JOINT RightHandIndex3
												{
													OFFSET -10.075203 0.000000 0.000000
													CHANNELS 3 Xrotation Yrotation Zrotation
													End Site
													{
														OFFSET 0.000000 0.000000 0.000000
													}
												}
											}
										}
										JOINT RightHandMiddle1
										{
											OFFSET -25.764404 0.000000 0.000000
											CHANNELS 3 Xrotation Yrotation Zrotation
											JOINT RightHandMiddle2
											{
												OFFSET -9.393974 0.000000 0.000000
												CHANNELS 3 Xrotation Yrotation Zrotation
												JOINT RightHandMiddle3
												{
													OFFSET -10.771950 0.000000 0.000000
													CHANNELS 3 Xrotation Yrotation Zrotation
													End Site
													{
														OFFSET 0.000000 0.000000 0.000000
													}
												}
											}
										}
										JOINT RightHandRing1
										{
											OFFSET -24.660927 0.144547 -6.225808
											CHANNELS 3 Xrotation Yrotation Zrotation
											JOINT RightHandRing2
											{
												OFFSET -9.393799 0.000000 0.000000
												CHANNELS 3 Xrotation Yrotation Zrotation
												JOINT RightHandRing3
												{
													OFFSET -9.928497 0.000000 0.000000
													CHANNELS 3 Xrotation Yrotation Zrotation
													End Site
													{
														OFFSET 0.000000 0.000000 0.000000
													}
												}
											}
										}
										JOINT RightHandPinky1
										{
											OFFSET -23.655350 0.125290 -12.815412
											CHANNELS 3 Xrotation Yrotation Zrotation
											JOINT RightHandPinky2
											{
												OFFSET -8.425102 0.000000 0.000000
												CHANNELS 3 Xrotation Yrotation Zrotation
												JOINT RightHandPinky3
												{
													OFFSET -8.147003 0.000000 0.000000
													CHANNELS 3 Xrotation Yrotation Zrotation
													End Site
													{
														OFFSET 0.000000 0.000000 0.000000
													}
												}
											}
										}
									}
								}
							}
						}
					}
				}
			}
		}
	}
	JOINT LeftUpLeg
	{
		OFFSET 11.394100 -6.187798 -0.413800
		CHANNELS 3 Xrotation Yrotation Zrotation
		JOINT LeftLeg
		{
			OFFSET 0.430247 -32.302673 3.732800
			CHANNELS 3 Xrotation Yrotation Zrotation
			JOINT LeftFoot
			{
				OFFSET -0.430247 -48.264931 -6.423300
				CHANNELS 3 Xrotation Yrotation Zrotation
				JOINT LeftToeBase
				{
					OFFSET 4.230900 -16.068199 23.438400
					CHANNELS 3 Xrotation Yrotation Zrotation
					JOINT LeftToe_End
					{
						OFFSET 4.510700 0.695400 19.974600
						CHANNELS 3 Xrotation Yrotation Zrotation
						End Site
						{
							OFFSET 0.000000 0.000000 0.000000
						}
					}
				}
			}
		}
	}
	JOINT RightUpLeg
	{
		OFFSET -11.333700 -6.187798 -0.413800
		CHANNELS 3 Xrotation Yrotation Zrotation
		JOINT RightLeg
		{
			OFFSET -0.430392 -32.302628 3.733000
			CHANNELS 3 Xrotation Yrotation Zrotation
			JOINT RightFoot
			{
				OFFSET 0.430392 -48.264973 -6.423500
				CHANNELS 3 Xrotation Yrotation Zrotation
				JOINT RightToeBase
				{
					OFFSET -4.230900 -16.068199 23.438400
					CHANNELS 3 Xrotation Yrotation Zrotation
					JOINT RightToe_End
					{
						OFFSET -4.510700 0.695400 19.974600
						CHANNELS 3 Xrotation Yrotation Zrotation
						End Site
						{
							OFFSET 0.000000 0.000000 0.000000
						}
					}
				}
			}
		}
	}
}
MOTION
Frames: 4
Frame Time: 0.016667
7.124605 95.739494 110.209351 23.868031 24.341520 -7.768869 11.228159 -0.698531 2.447572 6.689004 -2.739665 0.561830 0.000000 0.000000 0.000000 6.767275 -2.647715 0.806087 -7.061397 0.651895 3.401813 -21.911030 3.055703 1.503036 0.000002 0.000000 -0.000000 1.518839 -7.209062 -6.123056 0.000000 0.000000 0.000000 -29.320906 -21.016007 -35.448453 -0.000002 -29.544950 0.000003 -8.273326 6.667486 0.376816 -4.818360 -0.388132 0.088361 7.450095 23.644279 2.310965 -5.513975 12.822082 16.414973 -0.000001 -0.000001 0.000001 1.392521 -4.289621 -18.514949 0.313196 1.891583 -18.800951 0.000001 0.000000 0.000001 0.814289 5.226586 -29.279925 0.451071 2.256131 -22.609654 -0.000001 0.000000 0.000000 3.703737 9.279078 -35.643827 0.291103 1.825435 -18.119682 0.000000 -0.000001 -0.000003 -8.001702 17.864365 -33.635536 0.395802 2.118638 -21.161587 0.000000 0.000000 -0.000002 2.382988 6.831230 2.707430 0.000000 0.000000 0.000000 -16.474833 -9.604020 53.071598 0.000024 62.536577 -0.000014 -3.641322 3.447582 -8.284705 -8.636242 11.618376 -0.482706 7.832908 -27.003880 -3.053134 -3.237852 -28.163839 -19.305120 0.000000 -0.000001 -0.000001 9.241550 2.976999 1.678349 0.692452 -2.445345 31.616529 0.000001 0.000001 -0.000001 0.172066 -3.349961 13.232738 0.583242 -2.258520 28.956078 -0.000004 0.000000 -0.000001 1.536020 -6.518380 24.725592 0.620946 -2.325323 29.898969 -0.000000 0.000002 0.000001 -5.391447 -16.960668 33.120830 0.696245 -2.451508 31.705690 -0.000001 -0.000001 0.000001 -53.986696 5.638311 14.076100 50.194746 10.037979 -5.412654 -0.854944 28.668083 -2.403116 -2.517154 0.292434 -6.608815 0.000000 -0.000000 0.000000 -55.215420 -4.127166 -4.654715 34.805896 -7.254791 -4.652568 -0.682928 -6.189322 4.168330 -0.776285 0.000002 -0.000003 -0.000000 0.000000 0.000000 
7.383124 96.898567 111.776688 24.064508 25.147131 -8.058231 10.991301 -0.200961 2.390934 6.739185 -2.514406 0.541702 0.000000 0.000000 0.000000 6.813284 -2.447946 0.778873 -6.528696 0.281437 2.942691 -23.266315 1.506241 1.300735 -0.000000 0.000001 -0.000000 1.571527 -7.049213 -6.199188 0.000000 0.000000 0.000000 -27.840548 -21.494303 -35.479472 0.000005 -28.581676 0.000006 -5.965536 5.303742 -2.777267 -4.821590 -0.408749 0.104044 7.450095 23.644281 2.310975 -5.513976 12.822081 16.414977 -0.000000 -0.000001 0.000003 1.410550 -4.236789 -19.058287 0.332464 1.947239 -19.376226 -0.000002 -0.000000 -0.000000 0.825881 5.247067 -29.510495 0.442712 2.235969 -22.396279 0.000002 0.000000 0.000000 3.686995 9.272151 -35.517561 0.258882 1.723910 -17.079342 -0.000000 -0.000000 -0.000001 -8.021491 17.813859 -33.080269 0.333922 1.951379 -19.419167 -0.000000 0.000001 -0.000001 2.412592 6.644251 2.840668 0.000000 0.000000 0.000000 -17.278019 -10.440149 53.740058 0.000022 64.466911 0.000006 -4.319506 3.303196 -8.566022 -8.559263 11.392680 -0.383838 7.832910 -27.003880 -3.053130 -3.240555 -28.121489 -19.296738 -0.000001 0.000002 0.000001 9.265295 2.897262 4.050156 0.831881 -2.658381 34.747751 0.000001 0.000001 -0.000001 0.218729 -3.531506 15.536821 0.689714 -2.440928 31.552708 0.000002 -0.000000 -0.000001 1.695763 -6.638561 26.794596 0.720458 -2.490243 32.267296 0.000002 -0.000002 -0.000002 -5.286607 -17.043260 35.032389 0.792370 -2.600542 33.886324 -0.000002 -0.000000 -0.000003 -53.442586 6.050932 12.998332 45.599699 9.825582 -5.398288 2.042362 29.308939 -3.456403 -2.631317 0.285071 -6.552816 0.000000 0.000000 -0.000000 -51.899947 -4.442690 -4.448242 31.727933 -7.120229 -4.652800 -0.923514 -7.124418 4.115910 -0.776298 -0.000004 0.000001 0.000000 -0.000000 -0.000000 
7.613036 97.843399 113.353012 24.226150 26.004238 -8.352896 10.739846 0.297995 2.364183 6.787121 -2.287292 0.523223 0.000000 0.000000 0.000000 6.856944 -2.249067 0.744097 -6.145221 0.029305 2.502974 -24.587515 -0.208397 0.944951 0.000000 0.000001 -0.000000 1.618582 -6.835510 -6.264186 0.000000 0.000000 0.000000 -26.441493 -21.915702 -35.489649 -0.000000 -27.829490 0.000001 -4.158950 3.707707 -5.268055 -4.822753 -0.415830 0.109416 7.450095 23.644281 2.310971 -5.513977 12.822081 16.414973 -0.000001 0.000000 0.000000 1.429682 -4.182433 -19.619273 0.359075 2.021272 -20.144835 -0.000002 0.000000 0.000001 0.838484 5.269134 -29.759377 0.446237 2.244496 -22.486509 0.000001 -0.000000 0.000001 3.688298 9.275098 -35.508610 0.236543 1.649481 -16.320409 -0.000000 -0.000001 -0.000000 -8.038777 17.773819 -32.635614 0.284468 1.805056 -17.910375 -0.000000 0.000000 0.000001 2.446336 6.435832 2.980739 0.000000 0.000000 0.000000 -17.981431 -11.167564 54.420581 0.000019 66.639519 -0.000013 -4.845002 3.164080 -9.542830 -8.466648 11.117450 -0.246941 7.832903 -27.003880 -3.053135 -3.242679 -28.088268 -19.290157 -0.000001 -0.000000 -0.000001 9.295344 2.878059 6.343584 0.977320 -2.856431 37.770338 0.000003 -0.000001 -0.000001 0.270624 -3.704755 17.759745 0.799802 -2.611569 34.049934 -0.000006 -0.000001 0.000000 1.852711 -6.746812 28.783462 0.815902 -2.635205 34.401593 -0.000002 -0.000001 0.000000 -5.180597 -17.111979 36.727327 0.873722 -2.717618 35.639688 -0.000003 -0.000000 -0.000003 -52.684108 6.305303 12.247930 41.088823 10.401039 -5.416388 5.668190 29.618849 -5.733794 -3.512447 0.376751 -6.041654 0.000001 -0.000000 0.000000 -48.902273 -4.896148 -4.258410 29.123626 -6.908776 -4.647698 -1.306462 -8.039379 3.994905 -0.776292 0.000004 -0.000002 -0.000000 0.000001 -0.000000 
7.854288 98.563278 114.782486 24.323702 26.902992 -8.690661 10.474977 0.804182 2.346201 6.832000 -2.056075 0.504976 0.000000 0.000000 0.000000 6.898575 -2.042587 0.728342 -5.916548 -0.334475 1.914443 -25.874860 -1.918010 0.673788 -0.000001 -0.000000 -0.000000 1.646194 -6.617214 -6.320242 0.000000 0.000000 0.000000 -25.016647 -22.020552 -35.430220 -0.000002 -27.294799 -0.000009 -2.639177 2.137415 -7.461877 -4.821885 -0.409574 0.104684 7.450096 23.644283 2.310976 -5.513977 12.822079 16.414975 -0.000002 -0.000001 -0.000002 1.449927 -4.126686 -20.196330 0.393219 2.111964 -21.091681 -0.000001 -0.000000 0.000001 0.852129 5.292778 -30.026690 0.460309 2.278172 -22.843125 0.000000 0.000000 0.000001 3.705308 9.286615 -35.601825 0.223623 1.604725 -15.865447 -0.000000 -0.000001 0.000002 -8.053281 17.745685 -32.316545 0.246344 1.682582 -16.657573 0.000000 -0.000001 0.000003 2.483083 6.243174 3.110968 0.000000 0.000000 0.000000 -18.599611 -11.797021 55.140442 -0.000041 68.895340 0.000040 -5.221353 2.918463 -10.687382 -8.360218 10.798177 -0.075894 7.832906 -27.003879 -3.053134 -3.244262 -28.063514 -19.285253 -0.000001 0.000000 -0.000002 9.320952 2.929873 8.482597 1.121877 -3.033570 40.583072 0.000001 -0.000000 -0.000000 0.324903 -3.863887 19.826955 0.908248 -2.765109 36.361912 -0.000002 0.000000 0.000000 2.000281 -6.840062 30.623491 0.900149 -2.754059 36.193309 0.000002 0.000002 -0.000000 -5.078700 -17.159243 38.110943 0.930534 -2.795070 36.821079 0.000002 -0.000001 -0.000001 -52.022949 6.539512 11.574898 36.518925 10.333738 -5.320241 9.818903 29.451038 -8.777509 -7.545425 0.292261 -2.179951 0.000000 0.000001 -0.000000 -46.288872 -5.462791 -4.089149 27.049086 -6.611483 -4.635269 -1.764428 -8.956663 3.870973 -0.776295 -0.000003 0.000001 0.000000 0.000000 0.000000 
